<?xml version="1.0" encoding="UTF-8"?>
<svg id="Layer_1" xmlns="http://www.w3.org/2000/svg" version="1.1" viewBox="0 0 3000 2158.5">
  <!-- Generator: Adobe Illustrator 29.0.0, SVG Export Plug-In . SVG Version: 2.1.0 Build 186)  -->
  <defs>
    <style>
      .st0 {
      fill: #d60651;
      }
      .st1{
      fill: #ffffff;
      }

      .st0, .st1, .st2, .st3 {
      fill-rule: evenodd;
      }

      .st2 {
      fill: #38aa34;
      }

      .st3 {
      fill: #4491eb;
      }
    </style>
  </defs>
  <!-- <g>
    <path
     class="st1" d="M99.4,1932.6L1,2156h40.3l22.4-50.8h111.9l22.4,50.8h40.3l-98.4-223.4h-40.3ZM79,2070.3l40.6-92.1,40.6,92.1h-81.2Z" />
    <polygon
      class="st1" points="436.6 2099.4 306.9 1932.6 269.2 1932.6 269.2 2156 306.9 2156 306.9 1993 433.5 2156 474.4 2156 474.4 1932.6 436.6 1932.6 436.6 2099.4" />
    <path
     class="st1" d="M691.4,1932.6l-98.4,223.4h40.3l22.4-50.8h111.9l22.4,50.8h40.3l-98.4-223.4h-40.3ZM670.9,2070.3l40.6-92.1,40.6,92.1h-81.2Z" />
    <polygon
      class="st1" points="822.4 1967.1 890.2 1967.1 890.2 2156 927.9 2156 927.9 1967.1 995.7 1967.1 995.7 1932.6 822.4 1932.6 822.4 1967.1" />
    <polygon
      class="st1" points="1074.3 1932.6 1036.6 1932.6 1036.6 2156 1176.3 2156 1176.3 2120.2 1074.3 2120.2 1074.3 1932.6" />
    <path
     class="st1" d="M1353,1986.1c15.3-14.6,34.3-21.9,56.9-21.9s23.9,2,33.4,6.1c9.5,4.1,19.5,11.2,30.2,21.4l24-26.2c-23.2-25.6-52.2-38.4-86.8-38.4s-63.3,11.1-86,33.2c-22.7,22.2-34,49.9-34,83.1s11.1,60.7,33.4,82.5c22.3,21.7,50.3,32.6,84.1,32.6s62.5-13.1,86.1-39.3l-24.3-24.9c-10.2,9.6-20,16.6-29.4,20.9-9.4,4.4-20.6,6.6-33.6,6.6-20.9,0-38.9-7.6-54.2-22.9-15.2-15.2-22.9-34.2-22.9-56.9s7.7-41.3,23-55.9Z" />
    <path
     class="st1" d="M1722.5,1960.2c-22.6-22.1-50.5-33.1-83.7-33.1s-61.2,11-83.7,33.1c-22.6,22.1-33.9,49.5-33.9,82.5s11.3,60.4,33.9,82.5c22.6,22.1,50.5,33.1,83.7,33.1s61.2-11,83.7-33.1c22.6-22.1,33.9-49.5,33.9-82.5s-11.3-60.4-33.9-82.5ZM1694.8,2100.1c-15.2,15.8-33.9,23.7-56.1,23.7s-40.9-7.9-56.1-23.7c-15.2-15.8-22.9-34.9-22.9-57.4s7.6-41.6,22.9-57.4c15.2-15.8,33.9-23.7,56.1-23.7s40.9,7.9,56.1,23.7c15.2,15.8,22.9,34.9,22.9,57.4s-7.6,41.6-22.9,57.4Z" />
    <polygon
      class="st1" points="1930.2 2072.9 1862.8 1932.6 1804 1932.6 1804 2156 1841.7 2156 1841.7 1981.5 1919.4 2136.5 1940.5 2136.5 2018.5 1981.5 2018.5 2156 2056.2 2156 2056.2 1932.6 1997.7 1932.6 1930.2 2072.9" />
    <path
     class="st1" d="M2269,1952.1c-15.6-13-40.3-19.5-74.2-19.5h-76.7v223.4h37.7v-65.5h39.6c32.8,0,57.2-6.3,73-18.9,15.9-12.6,23.8-32.4,23.8-59.5s-7.8-47.1-23.3-60.1ZM2242.4,2044.3c-7.6,8-21.8,12-42.7,12h-43.8v-89.5h38.4c20.5,0,35.5,3.2,45.1,9.6s14.4,17.3,14.4,32.8-3.8,27.2-11.3,35.2Z" />
    <path
     class="st1" d="M2392.1,1932.6l-98.4,223.4h40.3l22.4-50.8h111.9l22.4,50.8h40.3l-98.4-223.4h-40.3ZM2371.6,2070.3l40.6-92.1,40.6,92.1h-81.2Z" />
    <polygon
      class="st1" points="2729.3 2099.4 2599.5 1932.6 2561.8 1932.6 2561.8 2156 2599.5 2156 2599.5 1993 2726.1 2156 2767 2156 2767 1932.6 2729.3 1932.6 2729.3 2099.4" />
    <polygon
      class="st1" points="2958.8 1932.6 2897.7 2034.2 2836.7 1932.6 2795.5 1932.6 2878.6 2067.8 2878.6 2156 2916.9 2156 2916.9 2067.8 3000 1932.6 2958.8 1932.6" />
  </g> -->
  <!-- <rect y="1726.7" width="3000" height="14.8" class="st1" /> -->
  <path id="Systems" class="st1"
    d="M360.6,1487c13.2,13.2,54.5,44.2,129.1,44.2s135.5-59.7,135.5-118.8-71.2-113.1-115.9-130.9c-45.3-18.4-62.6-34.4-62.6-55.7s15.5-29.3,36.2-29.3c35,0,76.9,31.6,82.1,34.4,5.2,4,15.5-1.1,19.5-7.5l29.3-44.2c2.3-4,3.4-14.3-3.4-18.4-17.2-12.6-63.1-43.1-122.8-43.1-88.4,0-132.6,57.4-132.6,114.2s62,107.3,111.4,126.9c39,15.5,59.1,33.9,59.1,58s-16.6,34.4-39.6,34.4c-37.9,0-79.2-30.4-81.5-31.6-4-2.9-14.9-4-19.5,3.4l-27,47.6c-4.6,8-2.9,10.3,2.9,16.1ZM761.2,1514.6c0,6,4.9,10.9,10.9,10.9h68.3c5.9-.2,10.7-5,10.9-10.9v-183.1l128.6-191.2c4.6-7.5,0-16.6-9.2-16.6h-74.6c-5.2,0-7.5,2.9-9.2,5.2l-79.8,117.7-79.8-117.7c-1.7-2.3-4.6-5.2-9.2-5.2h-74.6c-9.2,0-13.8,9.2-9.2,16.6l126.9,191.7v182.5h0ZM989.7,1487c13.2,13.2,54.5,44.2,129.1,44.2s135.5-59.7,135.5-118.8-71.2-113.1-115.9-130.9c-45.3-18.4-62.6-34.4-62.6-55.7s15.5-29.3,36.2-29.3c35,0,76.9,31.6,82.1,34.4,5.2,4,15.5-1.1,19.5-7.5l29.3-44.2c2.3-4,3.4-14.3-3.4-18.4-17.2-12.6-63.1-43.1-122.8-43.1-88.4,0-132.6,57.4-132.6,114.2s62,107.3,111.4,126.9c39,15.5,59.1,33.9,59.1,58s-16.7,34.4-39.6,34.4c-37.9,0-79.2-30.4-81.5-31.6-4-2.9-14.9-4-19.5,3.4l-27,47.6c-4.6,8-2.9,10.3,2.9,16.1h0ZM1366.9,1514.6c.2,5.9,5,10.7,10.9,10.9h68.9c5.9-.2,10.7-5,10.9-10.9v-306.5h82.1c6,0,10.9-4.9,10.9-10.9h0v-62.6c0-6-4.9-10.9-10.9-10.9h-254.9c-6,0-10.9,4.9-10.9,10.9h0v62.6c0,6,4.9,10.9,10.9,10.9h82.1v306.5h0ZM1588.5,1514.6c0,6,4.9,10.9,10.9,10.9h237.7c6,0,10.9-4.9,10.9-10.9h0v-62.6c0-6-4.9-10.9-10.9-10.9h-159v-77.5h130.9c6,0,10.9-4.9,10.9-10.9h0v-62.6c-.2-5.9-5-10.7-10.9-10.9h-130.9v-71.2h159c6,0,10.9-4.9,10.9-10.9h0v-62.6c0-6-4.9-10.9-10.9-10.9h-237.7c-6,0-10.9,4.9-10.9,10.9h0v380h0ZM1887.4,1512.8c-1.2,7.5,4,12.6,10.9,12.6h67.7c5.7,0,10.3-4.6,10.9-9.2l25.3-177.4h1.1l97,186c1.7,3.4,6.3,6.3,9.8,6.3h10.3c2.9,0,8-2.9,9.8-6.3l96.4-186h1.1l25.8,177.4c.6,4.6,5.7,9.2,10.9,9.2h67.7c6.9,0,12.1-5.2,10.9-12.6l-64.9-385.7c-.6-5.2-5.7-9.2-10.3-9.2h-9.2c-2.9,0-8,2.3-9.8,5.7l-133.2,248h-1.1l-133.2-248c-1.7-3.4-6.9-5.7-9.8-5.7h-9.2c-4.6,0-9.8,4-10.3,9.2l-64.9,385.7ZM2380.8,1487c13.2,13.2,54.5,44.2,129.1,44.2s135.5-59.7,135.5-118.8-71.2-113.1-115.9-130.9c-45.4-18.4-62.6-34.4-62.6-55.7s15.5-29.3,36.2-29.3c35,0,76.9,31.6,82.1,34.4,5.2,4,15.5-1.1,19.5-7.5l29.3-44.2c2.3-4,3.4-14.3-3.4-18.4-17.2-12.6-63.1-43.1-122.8-43.1-88.4,0-132.6,57.4-132.6,114.2s62,107.3,111.4,126.9c39,15.5,59.1,33.9,59.1,58s-16.6,34.4-39.6,34.4c-37.9,0-79.2-30.4-81.5-31.6-4-2.9-14.9-4-19.5,3.4l-27,47.6c-4.6,8-2.9,10.3,2.9,16.1h0Z" />
  <path id="T" class="st2"
    d="M2594.6,872.4c0,12.6,11.4,24,24.1,24h152c12.7,0,24.1-11.4,24.1-24V198.2h181.2c13.3,0,24-10.7,24.1-24h0V36.6c0-13.3-10.8-24-24-24,0,0,0,0,0,0h-562.5c-13.3,0-24,10.7-24.1,23.9h0v137.7c0,13.3,10.8,24,24,24,0,0,0,0,0,0h181.1v674.2Z" />
  <path id="O" class="st0"
    d="M1463.6,455.8c0,252.5,201.4,453.2,454.8,453.2s456.1-200.7,456.1-453.2S2171.8,0,1918.4,0s-454.8,203.3-454.8,455.8ZM1666.3,455.8c0-138.9,114-253.8,252.1-253.8s253.4,114.9,253.4,253.8-114,251.2-253.4,251.2-252.1-113.6-252.1-251.2h0Z" />
  <path id="L" class="st3"
    d="M926.8,872.4c0,13.3,10.8,24,24,24,0,0,0,0,0,0h476.3c13.3,0,24-10.7,24.1-24h0v-137.6c0-13.3-10.8-24-24-24,0,0,0,0,0,0h-301.5V36.6c0-12.6-11.4-24-24.1-24h-150.8c-13.3,0-24,10.7-24.1,24,0,0,0,0,0,0v835.8Z" />
  <path id="A" class="st1"
    d="M24.1,896.4h139.3c25.3,0,39.3-15.2,45.6-30.3l217-482.1,96,210h-107.7c-20.4,0-23.7,12.8-23.7,12.8l-58.2,138.2s-9.7,20,16.9,20c59.2,0,249.9,0,249.9,0l45.6,99.7c11.4,24,21.5,31.6,44.3,31.6h140.6c19,0,29.1-16.4,21.5-32.8L454.8,13.9c-3.8-7.6-12.7-13.9-21.5-13.9h-12.7c-8.9,0-17.7,6.3-21.5,13.9L2.5,863.5c-7.6,16.4,2.5,32.8,21.5,32.8Z" />
</svg>